<svg xmlns="http://www.w3.org/2000/svg" width="200" height="200" fill="none" viewBox="0 0 200 200"><g filter="url(#filter0_di_1587_120561)"><path fill="#FFAB00" d="M95.3913 38.0015C93.4471 38.0765 91.9244 38.1738 90.8232 38.2935C85.2911 38.8945 79.8625 40.2466 74.6991 42.3184C67.4863 45.2126 60.9326 49.4547 55.4123 54.8025C49.8919 60.1501 45.5129 66.4989 42.5253 73.4861C39.5377 80.4734 38 87.962 38 95.525V97.6655C38 98.7599 38.8872 99.6471 39.9816 99.6471H95.4677C96.5621 99.6471 97.4494 98.7599 97.4494 97.6655V95.525V39.9821C97.4496 38.8877 96.5626 38.0003 95.4682 38C95.4426 38 95.417 38.0005 95.3913 38.0015Z"/></g><g filter="url(#filter1_di_1587_120561)"><path fill="#fff" d="M160.352 100.561C160.267 98.4815 160.156 96.8571 160.019 95.6876C159.382 90.252 157.999 84.9192 155.899 79.8425C152.911 72.6199 148.532 66.0576 143.012 60.5297C137.491 55.0018 130.938 50.6169 123.725 47.6252C118.517 45.465 113.038 44.0617 107.456 43.4487C106.388 43.3313 104.913 43.2356 103.034 43.1617C101.94 43.1189 101.019 43.9707 100.976 45.0643C100.975 45.0899 100.975 45.1156 100.975 45.1412V99.6511C100.975 101.293 102.305 102.624 103.947 102.624H128.568H156.162H158.373C159.467 102.623 160.354 101.736 160.354 100.642C160.354 100.615 160.353 100.588 160.352 100.561Z"/></g><g filter="url(#filter2_di_1587_120561)"><path fill="#00A76F" d="M41.5812 104.673C41.6253 105.963 41.6804 106.99 41.7465 107.756C42.6074 117.72 45.9649 127.336 51.5442 135.697C58.0766 145.487 67.3613 153.117 78.2243 157.622C89.0873 162.128 101.041 163.307 112.573 161.01C122.207 159.091 131.187 154.817 138.729 148.608C139.078 148.321 139.48 147.975 139.936 147.569C141.572 146.115 141.719 143.61 140.264 141.974C140.214 141.917 140.161 141.861 140.106 141.808L102.136 103.787C101.392 103.042 100.383 102.624 99.3314 102.624H43.5626C42.4682 102.624 41.5806 103.51 41.5801 104.605C41.5801 104.628 41.5805 104.65 41.5812 104.673Z"/></g><path fill="#fff" d="M146.92 143.427C147.175 143.142 147.401 142.885 147.597 142.654C156.483 132.225 161.82 119.235 162.826 105.573C162.838 105.406 162.85 105.226 162.861 105.032C162.989 102.847 161.321 100.972 159.136 100.845C159.059 100.84 158.981 100.838 158.904 100.838H102.581C101.804 100.838 101.173 101.469 101.173 102.246V102.833C101.173 103.359 101.382 103.864 101.754 104.236L141.168 143.585C142.716 145.133 145.226 145.131 146.773 143.583C146.823 143.532 146.872 143.48 146.92 143.427Z"/><path fill="#007867" d="M146.92 143.427C147.175 143.142 147.401 142.885 147.597 142.654C156.483 132.225 161.82 119.235 162.826 105.573C162.838 105.406 162.85 105.226 162.861 105.032C162.989 102.847 161.321 100.972 159.136 100.845C159.059 100.84 158.981 100.838 158.904 100.838H102.581C101.804 100.838 101.173 101.469 101.173 102.246V102.833C101.173 103.359 101.382 103.864 101.754 104.236L141.168 143.585C142.716 145.133 145.226 145.131 146.773 143.583C146.823 143.532 146.872 143.48 146.92 143.427Z" opacity=".12"/><defs><filter id="filter0_di_1587_120561" width="91.45" height="93.647" x="30" y="30" color-interpolation-filters="sRGB" filterUnits="userSpaceOnUse"><feFlood flood-opacity="0" result="BackgroundImageFix"/><feColorMatrix in="SourceAlpha" result="hardAlpha" type="matrix" values="0 0 0 0 0 0 0 0 0 0 0 0 0 0 0 0 0 0 127 0"/><feOffset dx="8" dy="8"/><feGaussianBlur stdDeviation="8"/><feColorMatrix type="matrix" values="0 0 0 0 0.717647 0 0 0 0 0.431373 0 0 0 0 0 0 0 0 0.16 0"/><feBlend in2="BackgroundImageFix" mode="normal" result="effect1_dropShadow_1587_120561"/><feBlend in="SourceGraphic" in2="effect1_dropShadow_1587_120561" mode="normal" result="shape"/><feColorMatrix in="SourceAlpha" result="hardAlpha" type="matrix" values="0 0 0 0 0 0 0 0 0 0 0 0 0 0 0 0 0 0 127 0"/><feOffset dx="-2" dy="-2"/><feGaussianBlur stdDeviation="2"/><feComposite in2="hardAlpha" k2="-1" k3="1" operator="arithmetic"/><feColorMatrix type="matrix" values="0 0 0 0 0.717647 0 0 0 0 0.431373 0 0 0 0 0 0 0 0 0.48 0"/><feBlend in2="shape" mode="normal" result="effect2_innerShadow_1587_120561"/></filter><filter id="filter1_di_1587_120561" width="91.379" height="91.463" x="92.975" y="35.16" color-interpolation-filters="sRGB" filterUnits="userSpaceOnUse"><feFlood flood-opacity="0" result="BackgroundImageFix"/><feColorMatrix in="SourceAlpha" result="hardAlpha" type="matrix" values="0 0 0 0 0 0 0 0 0 0 0 0 0 0 0 0 0 0 127 0"/><feOffset dx="8" dy="8"/><feGaussianBlur stdDeviation="8"/><feColorMatrix type="matrix" values="0 0 0 0 0.770709 0 0 0 0 0.792653 0 0 0 0 0.818587 0 0 0 0.16 0"/><feBlend in2="BackgroundImageFix" mode="normal" result="effect1_dropShadow_1587_120561"/><feBlend in="SourceGraphic" in2="effect1_dropShadow_1587_120561" mode="normal" result="shape"/><feColorMatrix in="SourceAlpha" result="hardAlpha" type="matrix" values="0 0 0 0 0 0 0 0 0 0 0 0 0 0 0 0 0 0 127 0"/><feOffset dx="-2" dy="-2"/><feGaussianBlur stdDeviation="2"/><feComposite in2="hardAlpha" k2="-1" k3="1" operator="arithmetic"/><feColorMatrix type="matrix" values="0 0 0 0 0.717499 0 0 0 0 0.740813 0 0 0 0 0.768367 0 0 0 0.48 0"/><feBlend in2="shape" mode="normal" result="effect2_innerShadow_1587_120561"/></filter><filter id="filter2_di_1587_120561" width="131.686" height="91.53" x="33.58" y="94.624" color-interpolation-filters="sRGB" filterUnits="userSpaceOnUse"><feFlood flood-opacity="0" result="BackgroundImageFix"/><feColorMatrix in="SourceAlpha" result="hardAlpha" type="matrix" values="0 0 0 0 0 0 0 0 0 0 0 0 0 0 0 0 0 0 127 0"/><feOffset dx="8" dy="8"/><feGaussianBlur stdDeviation="8"/><feColorMatrix type="matrix" values="0 0 0 0 0 0 0 0 0 0.470588 0 0 0 0 0.403922 0 0 0 0.16 0"/><feBlend in2="BackgroundImageFix" mode="normal" result="effect1_dropShadow_1587_120561"/><feBlend in="SourceGraphic" in2="effect1_dropShadow_1587_120561" mode="normal" result="shape"/><feColorMatrix in="SourceAlpha" result="hardAlpha" type="matrix" values="0 0 0 0 0 0 0 0 0 0 0 0 0 0 0 0 0 0 127 0"/><feOffset dx="-2" dy="-2"/><feGaussianBlur stdDeviation="2"/><feComposite in2="hardAlpha" k2="-1" k3="1" operator="arithmetic"/><feColorMatrix type="matrix" values="0 0 0 0 0 0 0 0 0 0.470588 0 0 0 0 0.403922 0 0 0 0.48 0"/><feBlend in2="shape" mode="normal" result="effect2_innerShadow_1587_120561"/></filter></defs></svg>