<svg xmlns="http://www.w3.org/2000/svg" width="200" height="200" fill="none" viewBox="0 0 200 200"><g filter="url(#filter0_di_1587_120558)"><rect width="82" height="96" x="74" y="36" fill="#00A76F" rx="12"/></g><path fill="#fff" d="M88.5732 139.501C76.37 139.501 66.4375 129.542 66.4375 117.307V63.7812H57.3232C49.422 63.7812 43 70.2193 43 78.1413V148.639C43 156.561 49.422 163 57.3232 163H122.427C130.328 163 136.75 156.561 136.75 148.639V139.501H88.5732Z"/><path fill="#007867" d="M88.5732 139.501C76.37 139.501 66.4375 129.542 66.4375 117.307V63.7812H57.3232C49.422 63.7812 43 70.2193 43 78.1413V148.639C43 156.561 49.422 163 57.3232 163H122.427C130.328 163 136.75 156.561 136.75 148.639V139.501H88.5732Z" opacity=".12"/><defs><filter id="filter0_di_1587_120558" width="114" height="128" x="66" y="28" color-interpolation-filters="sRGB" filterUnits="userSpaceOnUse"><feFlood flood-opacity="0" result="BackgroundImageFix"/><feColorMatrix in="SourceAlpha" result="hardAlpha" type="matrix" values="0 0 0 0 0 0 0 0 0 0 0 0 0 0 0 0 0 0 127 0"/><feOffset dx="8" dy="8"/><feGaussianBlur stdDeviation="8"/><feColorMatrix type="matrix" values="0 0 0 0 0 0 0 0 0 0.470588 0 0 0 0 0.403922 0 0 0 0.16 0"/><feBlend in2="BackgroundImageFix" mode="normal" result="effect1_dropShadow_1587_120558"/><feBlend in="SourceGraphic" in2="effect1_dropShadow_1587_120558" mode="normal" result="shape"/><feColorMatrix in="SourceAlpha" result="hardAlpha" type="matrix" values="0 0 0 0 0 0 0 0 0 0 0 0 0 0 0 0 0 0 127 0"/><feOffset dx="-2" dy="-2"/><feGaussianBlur stdDeviation="2"/><feComposite in2="hardAlpha" k2="-1" k3="1" operator="arithmetic"/><feColorMatrix type="matrix" values="0 0 0 0 0 0 0 0 0 0.470588 0 0 0 0 0.403922 0 0 0 0.48 0"/><feBlend in2="shape" mode="normal" result="effect2_innerShadow_1587_120558"/></filter></defs></svg>