<svg xmlns="http://www.w3.org/2000/svg" width="200" height="200" fill="none" viewBox="0 0 200 200"><g filter="url(#filter0_di_1587_120567)"><rect width="112" height="136" x="44" y="32" fill="#fff" rx="12"/></g><g filter="url(#filter1_di_1587_120567)"><path fill="#00A76F" d="M60 60.0714C60 57.824 61.824 56 64.0714 56H93.9286C96.176 56 98 57.824 98 60.0714V65.5C98 67.7474 96.176 69.5714 93.9286 69.5714C91.6811 69.5714 89.8571 67.7474 89.8571 65.5V64.1429H83.0714V85.8571C85.3189 85.8571 87.1429 87.6811 87.1429 89.9286C87.1429 92.176 85.3189 94 83.0714 94H74.9286C72.6811 94 70.8571 92.176 70.8571 89.9286C70.8571 87.6811 72.6811 85.8571 74.9286 85.8571V64.1429H68.1429V65.5C68.1429 67.7474 66.3189 69.5714 64.0714 69.5714C61.824 69.5714 60 67.7474 60 65.5V60.0714Z"/></g><rect width="28" height="10" x="110" y="56" fill="#007867" opacity=".4" rx="5"/><rect width="28" height="10" x="110" y="70" fill="#007867" opacity=".24" rx="5"/><rect width="28" height="10" x="110" y="84" fill="#B76E00" opacity=".16" rx="5"/><rect width="80" height="10" x="60" y="106" fill="#007867" opacity=".16" rx="5"/><rect width="80" height="10" x="60" y="120" fill="#007867" opacity=".16" rx="5"/><defs><filter id="filter0_di_1587_120567" width="144" height="168" x="36" y="24" color-interpolation-filters="sRGB" filterUnits="userSpaceOnUse"><feFlood flood-opacity="0" result="BackgroundImageFix"/><feColorMatrix in="SourceAlpha" result="hardAlpha" type="matrix" values="0 0 0 0 0 0 0 0 0 0 0 0 0 0 0 0 0 0 127 0"/><feOffset dx="8" dy="8"/><feGaussianBlur stdDeviation="8"/><feColorMatrix type="matrix" values="0 0 0 0 0.770709 0 0 0 0 0.792653 0 0 0 0 0.818587 0 0 0 0.16 0"/><feBlend in2="BackgroundImageFix" mode="normal" result="effect1_dropShadow_1587_120567"/><feBlend in="SourceGraphic" in2="effect1_dropShadow_1587_120567" mode="normal" result="shape"/><feColorMatrix in="SourceAlpha" result="hardAlpha" type="matrix" values="0 0 0 0 0 0 0 0 0 0 0 0 0 0 0 0 0 0 127 0"/><feOffset dx="-2" dy="-2"/><feGaussianBlur stdDeviation="2"/><feComposite in2="hardAlpha" k2="-1" k3="1" operator="arithmetic"/><feColorMatrix type="matrix" values="0 0 0 0 0.717499 0 0 0 0 0.740813 0 0 0 0 0.768367 0 0 0 0.48 0"/><feBlend in2="shape" mode="normal" result="effect2_innerShadow_1587_120567"/></filter><filter id="filter1_di_1587_120567" width="54" height="54" x="56" y="52" color-interpolation-filters="sRGB" filterUnits="userSpaceOnUse"><feFlood flood-opacity="0" result="BackgroundImageFix"/><feColorMatrix in="SourceAlpha" result="hardAlpha" type="matrix" values="0 0 0 0 0 0 0 0 0 0 0 0 0 0 0 0 0 0 127 0"/><feOffset dx="4" dy="4"/><feGaussianBlur stdDeviation="4"/><feColorMatrix type="matrix" values="0 0 0 0 0 0 0 0 0 0.470588 0 0 0 0 0.403922 0 0 0 0.16 0"/><feBlend in2="BackgroundImageFix" mode="normal" result="effect1_dropShadow_1587_120567"/><feBlend in="SourceGraphic" in2="effect1_dropShadow_1587_120567" mode="normal" result="shape"/><feColorMatrix in="SourceAlpha" result="hardAlpha" type="matrix" values="0 0 0 0 0 0 0 0 0 0 0 0 0 0 0 0 0 0 127 0"/><feOffset dx="-1" dy="-1"/><feGaussianBlur stdDeviation="1"/><feComposite in2="hardAlpha" k2="-1" k3="1" operator="arithmetic"/><feColorMatrix type="matrix" values="0 0 0 0 0 0 0 0 0 0.470588 0 0 0 0 0.403922 0 0 0 0.48 0"/><feBlend in2="shape" mode="normal" result="effect2_innerShadow_1587_120567"/></filter></defs></svg>