<svg xmlns="http://www.w3.org/2000/svg" width="24" height="24" fill="none" viewBox="0 0 24 24"><path fill="#FFA000" d="M14.428 8.94328L12.2266 10.9913L10.1841 6.87117L11.2411 4.50146C11.516 4.02037 11.9449 4.02587 12.2129 4.50146L14.428 8.94328Z"/><path fill="#F57F17" d="M10.1841 6.87117L12.2266 10.9913L4 18.6441L10.1841 6.87117Z"/><path fill="#FFCA28" d="M16.8354 5.81277C17.2286 5.43477 17.6354 5.56398 17.7392 6.09936L19.8807 18.5424L12.7826 22.8034C12.5352 22.9409 11.8754 23 11.8754 23C11.8754 23 11.2747 22.9285 11.0459 22.7938L4 18.6441L16.8354 5.81277Z"/><path fill="#FFA000" d="M10.1841 6.87117L4.00067 18.6441L6.75456 1.4383C6.85628 0.902226 7.16142 0.850681 7.43358 1.32352L10.1841 6.87117Z"/></svg>