<svg xmlns="http://www.w3.org/2000/svg" width="200" height="200" fill="none" viewBox="0 0 200 200"><path fill="#919EAB" d="M28 60C28 53.3726 33.3726 48 40 48H160C166.627 48 172 53.3726 172 60V72H28V60Z" opacity=".48"/><path fill="#919EAB" d="M28 72V140C28 146.627 33.3726 152 40 152H160C166.627 152 172 146.627 172 140V72H28Z" opacity=".24"/><rect width="36" height="20" x="40" y="89" fill="#919EAB" rx="6"/><rect width="36" height="20" x="82" y="89" fill="#919EAB" opacity=".48" rx="6"/><rect width="36" height="20" x="124" y="89" fill="#919EAB" opacity=".48" rx="6"/><rect width="36" height="20" x="40" y="115" fill="#919EAB" opacity=".48" rx="6"/><rect width="36" height="20" x="82" y="115" fill="#919EAB" opacity=".24" rx="6"/><rect width="36" height="20" x="124" y="115" fill="#919EAB" opacity=".24" rx="6"/></svg>