<svg xmlns="http://www.w3.org/2000/svg" width="40" height="40" fill="none" viewBox="0 0 40 40"><g clip-path="url(#clip0_1255_158111)"><path fill="#3B1F03" d="M23.172 0C23.7022 0 24.2107 0.210507 24.5857 0.585255L36.4137 12.4044C36.7891 12.7795 37 13.2884 37 13.8191V35.3333C37 37.9107 34.8689 40 32.24 40H7.76C5.13112 40 3 37.9107 3 35.3333V4.66667C3 2.08934 5.13112 0 7.76 0H23.172Z"/><g filter="url(#filter0_d_1255_158111)"><path fill="#fff" fill-opacity=".24" d="M35.1548 12.1381C35.4678 12.4537 35.2443 12.9902 34.7998 12.9902H29C26.4227 12.9902 24.0976 10.7233 24.0976 8.21031V2.20435C24.0976 1.75791 24.6382 1.53528 24.9526 1.85224L35.1548 12.1381Z" shape-rendering="crispEdges"/></g><path fill="#FF860D" d="M13.9998 31L17.0718 22.324H19.4598L22.5318 31H20.2278L19.6518 29.32H16.9158L16.3278 31H13.9998ZM17.4078 27.328H19.1238L18.2718 24.556L17.4078 27.328Z"/><path fill="#FF860D" d="M23.5243 22.324H25.8583V31H23.5243V22.324Z"/></g><defs><filter id="filter0_d_1255_158111" width="15.203" height="15.287" x="22.098" y="1.703" color-interpolation-filters="sRGB" filterUnits="userSpaceOnUse"><feFlood flood-opacity="0" result="BackgroundImageFix"/><feColorMatrix in="SourceAlpha" result="hardAlpha" type="matrix" values="0 0 0 0 0 0 0 0 0 0 0 0 0 0 0 0 0 0 127 0"/><feOffset dy="2"/><feGaussianBlur stdDeviation="1"/><feComposite in2="hardAlpha" operator="out"/><feColorMatrix type="matrix" values="0 0 0 0 0 0 0 0 0 0 0 0 0 0 0 0 0 0 0.04 0"/><feBlend in2="BackgroundImageFix" mode="normal" result="effect1_dropShadow_1255_158111"/><feBlend in="SourceGraphic" in2="effect1_dropShadow_1255_158111" mode="normal" result="shape"/></filter><clipPath id="clip0_1255_158111"><rect width="40" height="40" fill="#fff"/></clipPath></defs></svg>