<svg xmlns="http://www.w3.org/2000/svg" width="40" height="41" fill="none" viewBox="0 0 40 41"><path fill="#C4CDD5" d="M23.172 0.990234C23.7022 0.990234 24.2107 1.20074 24.5857 1.57549L36.4137 13.3946C36.7891 13.7697 37 14.2786 37 14.8093V36.3236C37 38.9009 34.8689 40.9902 32.24 40.9902H7.76C5.13112 40.9902 3 38.9009 3 36.3236V5.6569C3 3.07957 5.13112 0.990234 7.76 0.990234H23.172Z"/><g filter="url(#filter0_d_1995_147665)"><path fill="#fff" fill-opacity=".24" d="M35.1548 13.1284C35.4678 13.4439 35.2443 13.9805 34.7998 13.9805H29C26.4227 13.9805 24.0976 11.7135 24.0976 9.20054V3.19458C24.0976 2.74814 24.6382 2.52551 24.9526 2.84248L35.1548 13.1284Z" shape-rendering="crispEdges"/></g><defs><filter id="filter0_d_1995_147665" width="15.203" height="15.287" x="22.098" y="2.694" color-interpolation-filters="sRGB" filterUnits="userSpaceOnUse"><feFlood flood-opacity="0" result="BackgroundImageFix"/><feColorMatrix in="SourceAlpha" result="hardAlpha" type="matrix" values="0 0 0 0 0 0 0 0 0 0 0 0 0 0 0 0 0 0 127 0"/><feOffset dy="2"/><feGaussianBlur stdDeviation="1"/><feComposite in2="hardAlpha" operator="out"/><feColorMatrix type="matrix" values="0 0 0 0 0 0 0 0 0 0 0 0 0 0 0 0 0 0 0.04 0"/><feBlend in2="BackgroundImageFix" mode="normal" result="effect1_dropShadow_1995_147665"/><feBlend in="SourceGraphic" in2="effect1_dropShadow_1995_147665" mode="normal" result="shape"/></filter></defs></svg>